<svg width="24" height="24" viewBox="0 0 24 24" fill="none" xmlns="http://www.w3.org/2000/svg">
<path d="M24 0H0V24H24V0Z" fill="white"/>
<rect x="0.0351562" y="6.35449" width="21" height="17" transform="rotate(-7.05852 0.0351562 6.35449)" fill="#FFD30A"/>
<path d="M1.24938 3.25011C1.98835 7.31447 1.49938 11.7336 1.49938 15.8612C1.49938 17.3435 1.51842 18.7356 1.26327 20.139C1.13709 20.833 1.0111 22.0001 1.88827 22.0001C5.35964 22.0001 8.64662 21.7627 12.1661 22.139C14.27 22.3639 16.3071 22.6373 18.3605 22.264C19.0761 22.1339 19.9127 22.4356 20.6105 22.2362C20.9915 22.1274 22.2185 22.118 21.9439 21.5001C21.4016 20.2802 21.7494 18.3917 21.7494 17.0834C21.7494 13.9933 21.4994 10.9198 21.4994 7.87511C21.4994 6.34703 21.3235 4.89594 21.9439 3.50011C22.6566 1.89645 19.1024 3.21642 18.2772 3.37511C15.7629 3.85863 13.0566 4.00011 10.4994 4.00011C8.4417 4.00011 6.44036 3.75011 4.38827 3.75011C3.50875 3.75011 2.96022 3.724 2.24938 3.25011" stroke="black" stroke-linecap="round" stroke-linejoin="round"/>
<path d="M12.5 4.25C14.2751 4.59636 15.5272 4.5 17.25 4.5C17.8082 4.5 19.9075 4.80315 20.25 4.375C20.3094 4.30078 21.6643 3.75 20.875 3.75C20.2893 3.75 19.9183 3.86539 19.375 3.98611C18.4288 4.19638 17.221 4 16.25 4" stroke="black" stroke-linecap="round" stroke-linejoin="round"/>
<path fill-rule="evenodd" clip-rule="evenodd" d="M6.00001 13.1723C6.00099 13.3439 6.11828 13.4696 6.26196 13.453C9.74016 13.0527 13.1677 13.1477 16.6159 13.3068C16.7584 13.3133 16.8887 13.179 16.9069 13.0067C16.9252 12.8345 16.8245 12.6895 16.682 12.683C13.232 12.5238 9.7744 12.427 6.25839 12.8317C6.1147 12.8482 5.99902 13.0007 6.00001 13.1723Z" fill="black" stroke="black" stroke-width="0.3" stroke-linecap="round" stroke-linejoin="round"/>
<path fill-rule="evenodd" clip-rule="evenodd" d="M10.6316 17.8735C10.7589 18.0275 10.9801 18.0431 11.1256 17.9083C11.8804 17.2089 12.6752 16.612 13.4866 16.0026C13.591 15.9241 13.6958 15.8455 13.8007 15.7663C14.7156 15.0768 15.6422 14.3566 16.505 13.4611C16.8202 13.1339 16.9961 12.7536 16.8645 12.3564C16.751 12.0141 16.4434 11.7993 16.192 11.6619C15.9226 11.5146 15.6071 11.3995 15.3539 11.3075L15.333 11.2999C15.2104 11.2554 15.1044 11.2169 15.0151 11.1805C14.9151 11.1396 14.8651 11.1126 14.8466 11.0993C14.7356 11.0189 14.6264 10.9405 14.5187 10.8631C13.4241 10.0768 12.4962 9.41035 11.5767 8.14469C11.4587 7.98243 11.2389 7.95207 11.0856 8.07687C10.9324 8.20167 10.9037 8.43438 11.0216 8.59663C12.0126 9.96057 13.0288 10.6897 14.1201 11.4728C14.2298 11.5515 14.3403 11.6308 14.4515 11.7112C14.5426 11.7771 14.6593 11.8297 14.7631 11.8721C14.8653 11.9138 14.9834 11.9567 15.1011 11.9994C15.1097 12.0025 15.1181 12.0056 15.1267 12.0086C15.3884 12.1037 15.6546 12.2024 15.8708 12.3205C16.1049 12.4485 16.1868 12.5507 16.2037 12.6019C16.2073 12.6126 16.2123 12.6307 16.197 12.6739C16.1786 12.7255 16.1304 12.8117 16.0147 12.9318C15.1945 13.7831 14.3072 14.4746 13.3946 15.1625C13.2907 15.2408 13.1863 15.3192 13.0817 15.3977C12.2732 16.0048 11.448 16.6244 10.6644 17.3505C10.5189 17.4853 10.5042 17.7195 10.6316 17.8735Z" fill="black" stroke="black" stroke-width="0.35" stroke-linecap="round" stroke-linejoin="round"/>
</svg>
