<svg width="205" height="209" viewBox="0 0 205 209" fill="none" xmlns="http://www.w3.org/2000/svg">
<mask id="mask0" mask-type="alpha" maskUnits="userSpaceOnUse" x="0" y="-10" width="210" height="219">
<rect y="-10" width="210" height="219" fill="#C4C4C4"/>
</mask>
<g mask="url(#mask0)">
<path d="M132.394 77.2028L127.698 50.7514L107.138 68.0437L132.394 77.2028Z" fill="url(#paint0_linear)"/>
<path d="M38.222 168.204L64.6733 163.508L47.381 142.949L38.222 168.204Z" fill="#FF0044"/>
<path d="M41.9337 83.8632C59.3261 84.5455 55.5961 107.357 75.0702 105.008" stroke="#1E2026" stroke-width="5"/>
<rect width="21.185" height="21.185" transform="matrix(0.940088 0.340931 0.340931 -0.940088 96.3691 154.885)" fill="#55DDA1"/>
<path d="M85.1606 54.2733L64.3177 37.3234L89.4182 27.7479L85.1606 54.2733Z" fill="#FFA800"/>
<rect x="40.7979" y="14.3939" width="21.185" height="21.185" transform="rotate(-170.881 40.7979 14.3939)" fill="#55DDA1"/>
<path d="M183.796 142.844L195.178 167.179L210.561 145.155L183.796 142.844Z" fill="url(#paint1_linear)"/>
<rect width="21.185" height="21.185" transform="matrix(-0.996295 -0.0860009 -0.0860009 0.996295 198.487 58.4849)" fill="#55DDA1"/>
</g>
<defs>
<linearGradient id="paint0_linear" x1="134.076" y1="55.1067" x2="110.336" y2="75.0741" gradientUnits="userSpaceOnUse">
<stop offset="0.0416667" stop-color="#045DE9"/>
<stop offset="1" stop-color="#045DE9"/>
</linearGradient>
<linearGradient id="paint1_linear" x1="187.89" y1="164.623" x2="205.653" y2="139.191" gradientUnits="userSpaceOnUse">
<stop offset="0.0416667" stop-color="#045DE9"/>
<stop offset="1" stop-color="#045DE9"/>
</linearGradient>
</defs>
</svg>
